Coordinates
version=1
nRows=17
nColumns=36
inDegrees=yes

Units are S.I. units (second, meters, Newtons, ...)
If the header above contains a line with 'inDegrees', this indicates whether rotational values are in degrees (yes) or radians (no).

endheader
time	pelvis_tilt	pelvis_list	pelvis_rotation	pelvis_tx	pelvis_ty	pelvis_tz	hip_flexion_r	hip_adduction_r	hip_rotation_r	knee_angle_r	knee_angle_r_beta	ankle_angle_r	subtalar_angle_r	mtp_angle_r	hip_flexion_l	hip_adduction_l	hip_rotation_l	knee_angle_l	knee_angle_l_beta	ankle_angle_l	subtalar_angle_l	mtp_angle_l	lumbar_extension	lumbar_bending	lumbar_rotation	arm_flex_r	arm_add_r	arm_rot_r	elbow_flex_r	pro_sup_r	arm_flex_l	arm_add_l	arm_rot_l	elbow_flex_l	pro_sup_l
      0.71000000	     -2.34133958	      1.68012497	     -6.41677563	      0.65540013	      0.92713500	     -0.14351364	    -14.22224007	      1.17878528	      2.51638491	     25.30464368	      0.44164935	     -1.67127625	    -10.24265702	     -7.01660339	     25.89424180	      0.75624666	     -5.21766940	     18.80004544	      0.32812269	     -5.97488107	    -17.14774613	     -7.01660339	     -7.23210059	    -22.00646997	      1.64676171	      1.55138143	     -4.05804186	     16.92217107	     36.23260708	    112.17104912	      5.79458438	    -11.51396210	    -13.63282232	     27.37496452	    106.04914052
      0.72000000	     -2.38915501	      1.77738207	     -6.11904027	      0.66829030	      0.92905592	     -0.14444876	    -12.78140222	      1.07953665	      2.38378023	     28.53513910	      0.49803213	     -5.24040659	    -12.25176936	     -7.03777017	     25.41218700	      1.07116204	     -4.92589844	     19.53400524	      0.34093271	     -4.59837668	    -16.73521443	     -7.03777017	     -7.27900742	    -22.56447282	      1.25040005	      1.44410516	     -3.92278032	     17.90616428	     35.53697934	    112.23660746	      5.81384413	    -11.84495889	    -12.71729152	     27.17756767	    106.00427787
      0.73000000	     -2.25515748	      2.06487087	     -5.85244691	      0.68114994	      0.93115821	     -0.14579102	    -11.30106119	      0.53581728	      1.68374002	     32.05150371	      0.55940427	     -7.75576770	    -12.43351224	     -7.04415858	     24.51285656	      1.70887978	     -4.48893460	     19.78493009	      0.34531217	     -3.62102071	    -16.88535713	     -7.04415858	     -7.55391684	    -23.28497808	      0.90461680	      1.15548818	     -3.79111759	     18.19464160	     35.30758879	    112.25146298	      5.91525905	    -12.01029130	    -12.46947854	     27.16597738	    105.99019328
      0.74000000	     -2.16902816	      2.26407985	     -5.65390440	      0.69365807	      0.93309508	     -0.14718551	     -9.62633238	      0.06528970	      1.13105803	     35.65232609	      0.62225048	    -10.23292652	    -12.89405980	     -7.04978600	     23.62311022	      2.22430118	     -4.14717168	     19.92769196	      0.34780384	     -2.70743915	    -17.01310815	     -7.04978600	     -7.77132535	    -23.82908615	      0.55517019	      0.95454785	     -3.70812096	     18.57168824	     35.07149078	    112.28410331	      5.97531266	    -12.12495539	    -12.13685601	     27.14679398	    106.00128898
      0.75000000	     -2.22753545	      2.27453564	     -5.53861866	      0.70568458	      0.93477332	     -0.14841425	     -7.71488326	     -0.09400659	      0.93727710	     39.15683214	      0.68341565	    -13.24371868	    -14.80088291	     -7.06868579	     22.92019679	      2.44628035	     -3.99698437	     20.11666058	      0.35110196	     -1.77187699	    -16.86939753	     -7.06868579	     -7.81242908	    -24.10939113	      0.21128447	      0.95216412	     -3.78404645	     19.67134433	     34.62180826	    112.35644047	      6.00032314	    -12.33245868	    -11.20641840	     26.96661022	    106.00188506
      0.76000000	     -2.06581036	      2.43308380	     -5.47594958	      0.71761588	      0.93664618	     -0.14995489	     -5.98584959	     -0.60872845	      0.50870473	     42.57533742	      0.74307982	    -14.62461416	    -15.10744377	     -7.07377564	     21.81152356	      2.89858272	     -3.80000661	     19.94380298	      0.34808503	     -0.94728203	    -16.91999792	     -7.07377564	     -8.13587713	    -24.49136486	     -0.13090963	      0.83954206	     -3.81493368	     19.93720100	     34.58894372	    112.37097925	      6.08164970	    -12.37211540	    -10.95672302	     26.93529599	    106.00239412
      0.77000000	     -2.10916428	      2.53692289	     -5.48297709	      0.72915934	      0.93814881	     -0.15146919	     -3.96589561	     -1.00681685	      0.27196168	     45.86573084	      0.80050802	    -15.43560308	    -16.04889365	     -7.08026577	     20.93362948	      3.21345234	     -3.79517100	     19.72717954	      0.34430424	     -0.18906526	    -16.81616399	     -7.08026577	     -8.22182034	    -24.75444052	     -0.40495605	      0.77141090	     -3.92886800	     20.36627282	     34.52694623	    112.40157446	      6.13179877	    -12.41286409	    -10.52741016	     26.90188428	    106.02725129
      0.78000000	     -2.10228424	      2.58464746	     -5.54824988	      0.74043240	      0.93973184	     -0.15293501	     -2.02241334	     -1.31752966	      0.16661115	     48.83427464	      0.85231888	    -15.55213563	    -17.12159691	     -7.08565572	     19.96785018	      3.43414570	     -3.92447090	     19.43273953	      0.33916529	      0.53017248	    -16.62572089	     -7.08565572	     -8.37975986	    -24.91571851	     -0.71000587	      0.79305365	     -4.03555796	     20.72157199	     34.48346368	    112.42220002	      6.19443868	    -12.42802034	    -10.09840916	     26.82273726	    106.05645862
      0.79000000	     -2.29714889	      2.54986096	     -5.66567224	      0.75144227	      0.94105747	     -0.15427941	      0.16333417	     -1.44577339	      0.22180885	     51.53803515	      0.89950840	    -15.20726424	    -18.42749715	     -7.09881575	     19.26231178	      3.46383994	     -4.30941550	     19.20714875	      0.33522799	      1.39995632	    -15.86411328	     -7.09881575	     -8.28115389	    -24.94370346	     -0.86987653	      0.83470973	     -4.21408867	     21.37982631	     34.29372922	    112.42088891	      6.29396127	    -12.51776578	     -9.12322668	     26.61344486	    106.10662351
      0.80000000	     -2.30352892	      2.60661038	     -5.77181772	      0.76243852	      0.94270843	     -0.15581389	      2.07405622	     -1.70691735	      0.23975423	     53.81911891	      0.93932083	    -14.13715045	    -19.73085408	     -7.10374950	     18.19206597	      3.67880542	     -4.57784120	     18.61881880	      0.32495969	      2.07243605	    -15.50000862	     -7.10374950	     -8.43551104	    -25.01862298	     -1.20117857	      0.88471119	     -4.30402185	     21.48373691	     34.24802039	    112.39804277	      6.36155314	    -12.51029920	     -8.74659413	     26.48450189	    106.11704646
      0.81000000	     -2.47574079	      2.61300709	     -5.87683672	      0.77323874	      0.94414048	     -0.15727302	      4.18606810	     -1.83175220	      0.34312490	     55.80617107	      0.97400143	    -12.83627968	    -20.93170046	     -7.10938655	     17.31469125	      3.78653414	     -4.96473119	     18.04772625	      0.31499225	      2.70249519	    -14.85738854	     -7.10938655	     -8.37417603	    -25.01680093	     -1.39711548	      0.90997159	     -4.40447885	     21.58023230	     34.11326533	    112.36276040	      6.45252354	    -12.50054076	     -8.20106205	     26.38018645	    106.15156761
      0.82000000	     -2.70143518	      2.58683898	     -5.96482504	      0.78390052	      0.94548285	     -0.15874952	      6.33284795	     -1.86717132	      0.49870026	     57.44758513	      1.00264951	    -11.42204229	    -21.88564910	     -7.11724019	     16.52040283	      3.84026248	     -5.42861861	     17.50728948	      0.30555984	      3.45648334	    -13.88969088	     -7.11724019	     -8.25293665	    -24.93977134	     -1.55069181	      0.92425734	     -4.51089784	     21.61775133	     33.89460803	    112.29514783	      6.60366611	    -12.51134582	     -7.37828716	     26.19975339	    106.20101274
      0.83000000	     -2.92403860	      2.51392679	     -6.02781815	      0.79445665	      0.94686228	     -0.16022489	      8.41092072	     -1.77351251	      0.75456386	     58.68905238	      1.02431720	     -9.95211236	    -22.59769692	     -7.12969334	     15.71018637	      3.83976822	     -5.92154404	     16.94098622	      0.29567599	      4.39532717	    -12.60003248	     -7.12969334	     -8.14126245	    -24.74498881	     -1.71890952	      0.92656134	     -4.55818817	     21.50260933	     33.70027581	    112.17939427	      6.81518348	    -12.56818339	     -6.15293937	     25.83573856	    106.23593849
      0.84000000	     -3.06144716	      2.32797879	     -5.99485233	      0.80498886	      0.94840469	     -0.16186805	     10.25377369	     -1.52952321	      0.94026397	     59.41935273	      1.03706334	     -8.86999412	    -23.53234994	     -7.13289912	     14.72148971	      3.82352367	     -6.02473978	     16.18132653	      0.28241743	      4.75005084	    -12.17412096	     -7.13289912	     -8.21851311	    -24.39706634	     -2.10780625	      0.97483605	     -4.66107793	     21.36771950	     33.63881138	    112.13385854	      6.92032498	    -12.48472641	     -5.80898595	     25.72278873	    106.24393258
      0.85000000	     -3.22990274	      2.14739727	     -5.88026024	      0.81547043	      0.94980824	     -0.16372201	     12.12051658	     -1.30392879	      1.04154699	     59.89037420	      1.04528422	     -7.95046174	    -24.26264097	     -7.13546833	     13.79367052	      3.83610634	     -6.08674640	     15.46658047	      0.26994275	      5.07127884	    -11.70832557	     -7.13546833	     -8.23194325	    -24.00839477	     -2.46811050	      0.97060870	     -4.77884427	     21.21883839	     33.50376989	    112.08321041	      7.04471816	    -12.35254282	     -5.43889326	     25.65747661	    106.27060313
      0.86000000	     -3.47813974	      2.02743144	     -5.70256511	      0.82585560	      0.95100881	     -0.16558170	     14.00511838	     -1.12909448	      1.13444279	     60.03953925	      1.04788764	     -6.62170223	    -24.57010196	     -7.17439665	     13.02688832	      3.85461746	     -6.38302103	     14.88517711	      0.25979535	      6.19504803	     -9.97325012	     -7.17439665	     -8.12882886	    -23.65559386	     -2.36623150	      0.60971046	     -4.83325909	     20.20413517	     33.57706780	    111.80005078	      7.79560087	    -12.46562341	     -2.42165183	     24.61830680	    106.07188451
      0.87000000	     -3.68279227	      1.78960404	     -5.45613225	      0.83617031	      0.95223801	     -0.16768228	     15.73154712	     -0.81199188	      1.21131205	     59.78988792	      1.04353040	     -5.96159188	    -25.07756374	     -7.17629437	     12.18123904	      3.84314151	     -6.28685945	     14.19836292	      0.24780818	      6.34493158	     -9.74627994	     -7.17629437	     -8.15627287	    -23.11919161	     -2.83244563	      0.61633333	     -4.97822129	     20.07130311	     33.47907743	    111.77456860	      7.92882217	    -12.26348250	     -2.26836687	     24.62931705	    106.07074574
